<svg xmlns="http://www.w3.org/2000/svg" viewBox="0 0 53 53" width="53" height="53" shape-rendering="crispEdges"><style>.g{fill:#fff}@media (prefers-color-scheme:dark){.g{fill:#000}}</style><rect class="g" width="53" height="53" rx="8"/><path fill="#09b6ba" d="M25 21h1v1h-1zM29 21h1v1h-1zM30 22h1v1h-1zM34 22h1v1h-1zM31 23h1v1h-1zM33 23h1v1h-1zM22 24h1v1h-1zM32 24h1v1h-1zM22 25h1v1h-1zM32 25h1v1h-1zM35 25h1v1h-1zM22 26h1v1h-1zM32 26h1v1h-1zM17 27h6v1h-6zM32 27h6v1h-6zM31 28h1v1h-1zM34 28h3v1h-3zM19 29h2v1h-2zM30 29h1v1h-1zM34 29h2v1h-2zM20 30h4v1h-4zM25 30h5v1h-5zM31 30h4v1h-4zM21 31h3v1h-3zM31 31h3v1h-3zM22 32h2v1h-2zM30 32h3v1h-3zM23 33h1v1h-1zM30 33h2v1h-2zM24 34h1v1h-1zM30 34h1v1h-1zM29 35h1v1h-1z"/><path fill="#2a2222" d="M19 11h4v1h-4zM25 11h4v1h-4zM32 11h3v1h-3zM14 12h5v1h-5zM23 12h2v1h-2zM29 12h1v1h-1zM31 12h1v1h-1zM35 12h1v1h-1zM13 13h1v1h-1zM18 13h1v1h-1zM29 13h3v1h-3zM36 13h4v1h-4zM9 14h5v1h-5zM40 14h1v1h-1zM8 15h1v1h-1zM40 15h1v1h-1zM7 16h3v1h-3zM41 16h1v1h-1zM6 17h1v1h-1zM41 17h2v1h-2zM5 18h1v1h-1zM43 18h2v1h-2zM5 19h1v1h-1zM45 19h1v1h-1zM4 20h1v1h-1zM20 20h14v1h-14zM45 20h1v1h-1zM47 20h2v1h-2zM4 21h1v1h-1zM19 21h1v1h-1zM34 21h1v1h-1zM45 21h2v1h-2zM49 21h1v1h-1zM4 22h1v1h-1zM18 22h1v1h-1zM35 22h1v1h-1zM49 22h1v1h-1zM3 23h2v1h-2zM17 23h1v1h-1zM36 23h1v1h-1zM49 23h1v1h-1zM2 24h1v1h-1zM5 24h2v1h-2zM16 24h1v1h-1zM37 24h1v1h-1zM48 24h1v1h-1zM1 25h1v1h-1zM15 25h1v1h-1zM38 25h1v1h-1zM49 25h1v1h-1zM1 26h1v1h-1zM4 26h1v1h-1zM15 26h1v1h-1zM39 26h1v1h-1zM50 26h1v1h-1zM1 27h1v1h-1zM16 27h1v1h-1zM38 27h1v1h-1zM50 27h1v1h-1zM2 28h1v1h-1zM17 28h1v1h-1zM37 28h1v1h-1zM50 28h1v1h-1zM3 29h2v1h-2zM18 29h1v1h-1zM36 29h1v1h-1zM49 29h2v1h-2zM2 30h1v1h-1zM19 30h1v1h-1zM35 30h1v1h-1zM48 30h1v1h-1zM51 30h1v1h-1zM1 31h1v1h-1zM20 31h1v1h-1zM34 31h1v1h-1zM48 31h1v1h-1zM51 31h1v1h-1zM1 32h1v1h-1zM4 32h1v1h-1zM21 32h1v1h-1zM33 32h1v1h-1zM48 32h1v1h-1zM51 32h1v1h-1zM1 33h1v1h-1zM4 33h1v1h-1zM22 33h1v1h-1zM32 33h1v1h-1zM49 33h1v1h-1zM51 33h1v1h-1zM1 34h1v1h-1zM4 34h1v1h-1zM23 34h1v1h-1zM31 34h1v1h-1zM49 34h1v1h-1zM51 34h1v1h-1zM1 35h1v1h-1zM4 35h1v1h-1zM24 35h1v1h-1zM30 35h1v1h-1zM49 35h1v1h-1zM51 35h1v1h-1zM1 36h1v1h-1zM4 36h1v1h-1zM25 36h1v1h-1zM29 36h1v1h-1zM49 36h1v1h-1zM51 36h1v1h-1zM1 37h1v1h-1zM4 37h1v1h-1zM26 37h1v1h-1zM28 37h1v1h-1zM49 37h1v1h-1zM51 37h1v1h-1zM2 38h1v1h-1zM4 38h1v1h-1zM27 38h1v1h-1zM50 38h1v1h-1zM3 39h1v1h-1zM49 39h1v1h-1zM4 40h1v1h-1zM48 40h1v1h-1zM5 41h43v1h-43z"/><path fill="#363c25" d="M10 16h1v1h-1z"/><path fill="#5a3413" d="M18 15h15v1h-15zM18 16h2v1h-2zM33 16h3v1h-3zM12 17h2v1h-2zM16 17h2v1h-2zM36 17h2v1h-2zM11 18h1v1h-1zM14 18h2v1h-2zM38 18h1v1h-1zM9 19h1v1h-1zM14 19h1v1h-1zM39 19h2v1h-2zM9 20h1v1h-1zM12 20h2v1h-2zM41 20h2v1h-2zM8 21h1v1h-1zM11 21h2v1h-2zM42 21h1v1h-1zM8 22h4v1h-4zM43 22h2v1h-2zM9 23h1v1h-1zM44 23h1v1h-1zM47 23h1v1h-1zM8 24h1v1h-1zM45 24h2v1h-2zM45 25h1v1h-1zM7 26h1v1h-1zM6 27h1v1h-1zM46 27h1v1h-1zM6 28h1v1h-1zM47 28h1v1h-1zM6 29h1v1h-1zM47 29h1v1h-1zM5 30h1v1h-1zM5 31h1v1h-1zM5 32h1v1h-1z"/><path fill="#5d8c0a" d="M20 13h2v1h-2zM15 14h1v1h-1zM17 14h6v1h-6zM25 14h1v1h-1zM29 14h3v1h-3zM33 14h1v1h-1zM15 15h1v1h-1zM17 15h1v1h-1zM33 15h1v1h-1zM36 15h2v1h-2zM14 16h4v1h-4zM37 16h2v1h-2zM11 17h1v1h-1zM14 17h2v1h-2zM38 17h3v1h-3zM44 21h1v1h-1zM6 22h2v1h-2zM45 22h3v1h-3zM7 23h2v1h-2zM45 23h2v1h-2zM48 23h1v1h-1zM7 24h1v1h-1zM5 25h3v1h-3zM6 26h1v1h-1z"/><path fill="#64d3d3" d="M20 21h5v1h-5zM30 21h4v1h-4zM19 22h2v1h-2zM24 22h1v1h-1zM33 22h1v1h-1zM18 23h1v1h-1zM21 23h3v1h-3zM32 23h1v1h-1zM35 23h1v1h-1zM17 24h1v1h-1zM36 24h1v1h-1zM16 25h1v1h-1zM18 25h1v1h-1zM37 25h1v1h-1zM38 26h1v1h-1zM18 28h3v1h-3zM23 28h1v1h-1zM32 28h2v1h-2zM21 29h4v1h-4zM31 29h3v1h-3zM30 30h1v1h-1zM24 31h1v1h-1zM30 31h1v1h-1zM24 32h1v1h-1zM24 33h1v1h-1zM29 33h1v1h-1zM29 34h1v1h-1zM25 35h1v1h-1zM28 35h1v1h-1zM28 36h1v1h-1z"/><path fill="#7d2a11" d="M10 19h1v1h-1zM10 20h1v1h-1z"/><path fill="#8a4b19" d="M37 20h1v1h-1zM16 21h1v1h-1zM8 32h1v1h-1zM2 34h1v1h-1zM3 35h1v1h-1zM3 36h1v1h-1zM3 37h1v1h-1zM7 37h1v1h-1z"/><path fill="#926e3e" d="M10 23h1v1h-1z"/><path fill="#96e1e3" d="M23 27h1v1h-1z"/><path fill="#a36723" d="M13 29h1v1h-1zM45 36h1v1h-1zM5 39h1v1h-1zM22 39h1v1h-1zM47 39h1v1h-1z"/><path fill="#a5ca10" d="M19 12h4v1h-4zM25 12h4v1h-4zM32 12h3v1h-3zM19 13h1v1h-1zM22 13h7v1h-7zM32 13h4v1h-4zM16 14h1v1h-1zM23 14h2v1h-2zM26 14h3v1h-3zM32 14h1v1h-1zM34 14h6v1h-6zM13 15h2v1h-2zM16 15h1v1h-1zM34 15h2v1h-2zM38 15h2v1h-2zM11 16h3v1h-3zM36 16h1v1h-1zM39 16h2v1h-2zM9 17h2v1h-2zM7 18h4v1h-4zM42 18h1v1h-1zM7 19h2v1h-2zM42 19h3v1h-3zM6 20h3v1h-3zM43 20h2v1h-2zM6 21h2v1h-2zM43 21h1v1h-1zM47 21h2v1h-2zM48 22h1v1h-1zM6 23h1v1h-1zM4 24h1v1h-1zM3 25h2v1h-2zM3 26h1v1h-1zM5 26h1v1h-1zM3 27h3v1h-3zM4 28h2v1h-2zM5 29h1v1h-1z"/><path fill="#b4e9e7" d="M33 24h2v1h-2zM33 25h2v1h-2zM31 26h1v1h-1zM30 27h2v1h-2zM30 28h1v1h-1z"/><path fill="#b84a48" d="M13 18h1v1h-1z"/><path fill="#bc1a0e" d="M10 21h1v1h-1z"/><path fill="#d4ef6e" d="M14 13h4v1h-4zM14 14h1v1h-1zM9 15h4v1h-4zM7 17h2v1h-2zM6 18h1v1h-1zM40 18h2v1h-2zM6 19h1v1h-1zM41 19h1v1h-1zM5 20h1v1h-1zM5 21h1v1h-1zM5 22h1v1h-1zM5 23h1v1h-1zM3 24h1v1h-1zM2 25h1v1h-1zM2 26h1v1h-1zM2 27h1v1h-1zM3 28h1v1h-1z"/><path fill="#d69b40" d="M18 17h1v1h-1zM16 18h1v1h-1zM21 18h1v1h-1zM31 18h1v1h-1zM19 19h1v1h-1zM40 20h1v1h-1zM41 21h1v1h-1zM42 22h1v1h-1zM43 23h1v1h-1zM44 24h1v1h-1zM8 25h1v1h-1zM45 26h1v1h-1zM7 27h1v1h-1zM39 27h2v1h-2zM7 28h1v1h-1zM38 28h2v1h-2zM37 29h2v1h-2zM36 30h3v1h-3zM42 30h1v1h-1zM35 31h2v1h-2zM34 32h2v1h-2zM33 33h3v1h-3zM48 33h1v1h-1zM11 34h1v1h-1zM19 34h1v1h-1zM32 34h2v1h-2zM46 34h1v1h-1zM48 34h1v1h-1zM31 35h2v1h-2zM48 35h1v1h-1zM30 36h2v1h-2zM37 36h1v1h-1zM48 36h1v1h-1zM29 37h2v1h-2zM48 37h1v1h-1zM28 38h2v1h-2zM48 38h2v1h-2zM4 39h1v1h-1zM6 39h16v1h-16zM23 39h24v1h-24zM48 39h1v1h-1zM5 40h43v1h-43z"/><path fill="#d9f6f6" d="M21 22h3v1h-3zM31 22h2v1h-2zM19 23h2v1h-2zM34 23h1v1h-1zM18 24h2v1h-2zM24 24h1v1h-1zM35 24h1v1h-1zM17 25h1v1h-1zM23 25h1v1h-1zM36 25h1v1h-1zM16 26h4v1h-4zM23 26h1v1h-1zM33 26h5v1h-5zM21 28h2v1h-2zM24 28h1v1h-1zM24 30h1v1h-1zM25 31h5v1h-5zM25 32h5v1h-5zM25 33h4v1h-4zM25 34h4v1h-4zM26 35h2v1h-2zM26 36h2v1h-2zM27 37h1v1h-1z"/><path fill="#dbaa58" d="M39 18h1v1h-1z"/><path fill="#dc0f08" d="M11 19h3v1h-3zM11 20h1v1h-1zM9 21h1v1h-1zM47 24h1v1h-1zM46 25h1v1h-1zM48 25h1v1h-1zM46 26h3v1h-3zM47 27h1v1h-1zM3 30h2v1h-2zM2 31h2v1h-2zM2 32h2v1h-2zM2 33h2v1h-2zM3 34h1v1h-1z"/><path fill="#e78f82" d="M12 18h1v1h-1zM47 25h1v1h-1zM4 31h1v1h-1z"/><path fill="#e7c12a" d="M50 33h1v1h-1z"/><path fill="#f4950a" d="M49 26h1v1h-1zM48 29h1v1h-1z"/><path fill="#f4c26a" d="M23 17h10v1h-10zM20 18h1v1h-1zM22 18h9v1h-9zM32 18h3v1h-3zM20 19h16v1h-16zM17 20h3v1h-3zM34 20h3v1h-3zM38 20h1v1h-1zM15 21h1v1h-1zM17 21h2v1h-2zM35 21h6v1h-6zM14 22h4v1h-4zM36 22h6v1h-6zM13 23h4v1h-4zM37 23h6v1h-6zM12 24h4v1h-4zM38 24h6v1h-6zM12 25h3v1h-3zM39 25h6v1h-6zM11 26h4v1h-4zM40 26h5v1h-5zM10 27h6v1h-6zM41 27h5v1h-5zM9 28h8v1h-8zM40 28h7v1h-7zM9 29h4v1h-4zM14 29h4v1h-4zM39 29h8v1h-8zM9 30h10v1h-10zM39 30h3v1h-3zM43 30h5v1h-5zM8 31h12v1h-12zM37 31h11v1h-11zM7 32h1v1h-1zM9 32h12v1h-12zM36 32h12v1h-12zM7 33h1v1h-1zM9 33h13v1h-13zM36 33h12v1h-12zM6 34h5v1h-5zM12 34h7v1h-7zM20 34h3v1h-3zM34 34h12v1h-12zM47 34h1v1h-1zM6 35h13v1h-13zM20 35h4v1h-4zM33 35h15v1h-15zM6 36h19v1h-19zM32 36h5v1h-5zM38 36h7v1h-7zM46 36h2v1h-2zM6 37h1v1h-1zM8 37h18v1h-18zM31 37h17v1h-17zM7 38h20v1h-20zM30 38h18v1h-18z"/><path fill="#f6d69b" d="M20 16h13v1h-13zM19 17h4v1h-4zM33 17h3v1h-3zM17 18h3v1h-3zM35 18h3v1h-3zM15 19h4v1h-4zM36 19h3v1h-3zM14 20h3v1h-3zM39 20h1v1h-1zM13 21h2v1h-2zM12 22h2v1h-2zM11 23h2v1h-2zM9 24h3v1h-3zM9 25h3v1h-3zM8 26h3v1h-3zM8 27h2v1h-2zM8 28h1v1h-1zM7 29h2v1h-2zM6 30h3v1h-3zM6 31h2v1h-2zM6 32h1v1h-1zM5 33h2v1h-2zM8 33h1v1h-1zM5 34h1v1h-1zM50 34h1v1h-1zM2 35h1v1h-1zM5 35h1v1h-1zM19 35h1v1h-1zM50 35h1v1h-1zM2 36h1v1h-1zM5 36h1v1h-1zM50 36h1v1h-1zM2 37h1v1h-1zM5 37h1v1h-1zM50 37h1v1h-1zM3 38h1v1h-1zM5 38h2v1h-2z"/><path fill="#f6d907" d="M48 27h2v1h-2zM48 28h2v1h-2zM49 30h2v1h-2zM49 31h2v1h-2zM49 32h2v1h-2z"/><path fill="#f7f7f7" d="M26 21h3v1h-3zM25 22h5v1h-5zM24 23h7v1h-7zM20 24h2v1h-2zM23 24h1v1h-1zM25 24h7v1h-7zM19 25h3v1h-3zM24 25h8v1h-8zM20 26h2v1h-2zM24 26h7v1h-7zM24 27h6v1h-6zM25 28h5v1h-5zM25 29h5v1h-5z"/></svg>
